HIERARCHY
ROOT RootJoint
{
    OFFSET   0.000000   0.000000   0.000000
    CHANNELS 6 Xposition Yposition Zposition Xrotation Yrotation Zrotation
    JOINT pelvis_lowerback
    {
        OFFSET   0.000000   0.093605   0.000000
        CHANNELS 3 Xrotation Yrotation Zrotation
        JOINT lowerback_torso
        {
            OFFSET   0.000000   0.100000   0.000000
            CHANNELS 3 Xrotation Yrotation Zrotation
            JOINT torso_head
            {
                OFFSET   0.000000   0.282350   0.000000
                CHANNELS 3 Xrotation Yrotation Zrotation
                End Site
                {
                    OFFSET   0.000000   0.192650   0.000000
                }
            }
            JOINT rTorso_Clavicle
            {
                OFFSET  -0.001000   0.157500   0.000000
                CHANNELS 3 Xrotation Yrotation Zrotation
                JOINT rShoulder
                {
                    OFFSET  -0.117647   0.000000   0.000000
                    CHANNELS 3 Xrotation Yrotation Zrotation
                    JOINT rElbow
                    {
                        OFFSET  -0.245000   0.000000   0.000000
                        CHANNELS 3 Xrotation Yrotation Zrotation
                        JOINT rWrist
                        {
                            OFFSET  -0.240000   0.000000   0.000000
                            CHANNELS 3 Xrotation Yrotation Zrotation
                            End Site
                            {
                                OFFSET  -0.116353  -0.002500   0.000000
                            }
                        }
                    }
                }
            }
            JOINT lTorso_Clavicle
            {
                OFFSET   0.001000   0.157500   0.000000
                CHANNELS 3 Xrotation Yrotation Zrotation
                JOINT lShoulder
                {
                    OFFSET   0.117647   0.000000   0.000000
                    CHANNELS 3 Xrotation Yrotation Zrotation
                    JOINT lElbow
                    {
                        OFFSET   0.245000   0.000000   0.000000
                        CHANNELS 3 Xrotation Yrotation Zrotation
                        JOINT lWrist
                        {
                            OFFSET   0.240000   0.000000   0.000000
                            CHANNELS 3 Xrotation Yrotation Zrotation
                            End Site
                            {
                                OFFSET   0.116353  -0.002500   0.000000
                            }
                        }
                    }
                }
            }
        }
    }
    JOINT rHip
    {
        OFFSET  -0.100000  -0.051395   0.000000
        CHANNELS 3 Xrotation Yrotation Zrotation
        JOINT rKnee
        {
            OFFSET   0.000000  -0.410000   0.000000
            CHANNELS 3 Xrotation Yrotation Zrotation
            JOINT rAnkle
            {
                OFFSET   0.000000  -0.390000   0.000000
                CHANNELS 3 Xrotation Yrotation Zrotation
                JOINT rToeJoint
                {
                    OFFSET   0.000000  -0.050000   0.130000
                    CHANNELS 3 Xrotation Yrotation Zrotation
                    End Site
                    {
                        OFFSET  -0.010000   0.002000   0.060000
                    }
                }
            }
        }
    }
    JOINT lHip
    {
        OFFSET   0.100000  -0.051395   0.000000
        CHANNELS 3 Xrotation Yrotation Zrotation
        JOINT lKnee
        {
            OFFSET   0.000000  -0.410000   0.000000
            CHANNELS 3 Xrotation Yrotation Zrotation
            JOINT lAnkle
            {
                OFFSET   0.000000  -0.390000   0.000000
                CHANNELS 3 Xrotation Yrotation Zrotation
                JOINT lToeJoint
                {
                    OFFSET   0.000000  -0.050000   0.130000
                    CHANNELS 3 Xrotation Yrotation Zrotation
                    End Site
                    {
                        OFFSET   0.010000   0.002000   0.060000
                    }
                }
            }
        }
    }
}
MOTION
Frames: 8
Frame Time:   0.008333
 -2.390266   0.699221   4.695758 -14.384616 -13.621885   0.215116  19.052695   1.453696  -1.883728   6.273497   0.198975   0.310166   6.312401   1.247570   0.902256   2.465104   2.001173   4.668506   3.165722  12.422359  49.507155  -0.000214  24.143346  -0.000627   4.012755   2.297997  -0.061761   2.910719  -0.469386  -8.298365   5.679672  -7.404826 -48.561231  -0.000012 -23.240161   0.000207   4.011372  -2.963329   1.178115 -10.279833  -3.146447 -10.503371  83.938835   0.000063  -0.000043 -57.803954  -4.001216  -1.912469  -5.176896  -0.003176  -0.000877 -36.862245   2.333509   5.279714  89.481592   0.002785   0.002018 -33.684010   2.248096  -2.192405   1.067066  -0.000008  -0.000995
 -2.388475   0.696915   4.699999 -14.278934 -13.760989   0.127448  18.916957   1.523695  -1.885312   6.281283   0.273458   0.305360   6.365197   1.248189   0.980668   2.433820   1.970100   4.670209   3.216177  12.512009  49.481243  -0.000243  24.267535  -0.000531   4.062055   2.338941  -0.020537   2.900887  -0.399386  -8.285722   5.647328  -7.354238 -48.497980   0.000062 -23.125695   0.000281   4.021182  -2.988254   1.157404 -10.049783  -2.936378 -10.617240  84.056985   0.000234  -0.000292 -58.518926  -4.038154  -1.639185  -4.317137  -0.002453  -0.000853 -37.444557   2.172607   5.338025  89.156441   0.002667   0.002013 -34.142184   2.184674  -2.174915   1.059769  -0.000006  -0.000776
 -2.386650   0.694335   4.704338 -14.190670 -13.900136   0.019634  18.792299   1.585558  -1.878182   6.294756   0.345586   0.309577   6.417162   1.249330   1.055927   2.403767   1.940660   4.674620   3.263409  12.594371  49.453384  -0.000264  24.382052  -0.000431   4.109772   2.374022   0.007859   2.889524  -0.332684  -8.268458   5.616218  -7.304379 -48.428309   0.000127 -23.016461   0.000317   4.029003  -2.997956   1.162540  -9.827874  -2.734094 -10.731605  84.242922   0.000461  -0.000663 -59.189194  -4.068301  -1.381807  -3.414523  -0.001636  -0.000843 -37.977508   2.004072   5.403897  88.883305   0.002497   0.001954 -34.571682   2.125913  -2.158313   1.035140  -0.000000  -0.000555
 -2.384783   0.691530   4.708778 -14.109190 -14.036571  -0.105625  18.672610   1.641001  -1.861149   6.307787   0.412033   0.322297   6.466255   1.250434   1.126886   2.376972   1.911955   4.681763   3.308692  12.670147  49.427305  -0.000275  24.487915  -0.000333   4.155520   2.402857   0.031772   2.878673  -0.269526  -8.249791   5.587367  -7.256571 -48.359146   0.000171 -22.913702   0.000322   4.036443  -3.000773   1.180767  -9.611397  -2.548105 -10.846892  84.471104   0.000679  -0.001091 -59.838191  -4.105010  -1.137485  -2.902537  -0.001013  -0.000855 -38.467501   1.838928   5.473618  88.637341   0.002293   0.001883 -34.972330   2.071154  -2.142986   1.011676   0.000002  -0.000384
 -2.382872   0.688539   4.713316 -14.028810 -14.166032  -0.247845  18.555664   1.689398  -1.833508   6.318070   0.471973   0.343520   6.511823   1.251432   1.194027   2.353830   1.883631   4.692223   3.352479  12.739809  49.404109  -0.000278  24.585742  -0.000242   4.199293   2.426082   0.055302   2.868156  -0.210400  -8.231984   5.560271  -7.211570 -48.292921   0.000195 -22.817490   0.000306   4.043619  -3.000828   1.204947  -9.399387  -2.374332 -10.958891  84.730128   0.000886  -0.001535 -60.468791  -4.141269  -0.905955  -2.505742  -0.000498  -0.000837 -38.919259   1.680136   5.543882  88.409665   0.002064   0.001813 -35.346093   2.020022  -2.128919   0.990448  -0.000000  -0.000255
 -2.380918   0.685392   4.717950 -13.945536 -14.283383  -0.406088  18.440375   1.729906  -1.795726   6.324717   0.524661   0.373066   6.553793   1.252289   1.257792   2.334477   1.855450   4.706347   3.395054  12.803780  49.384365  -0.000273  24.676094  -0.000163   4.241128   2.444252   0.080495   2.857426  -0.155821  -8.215909   5.534275  -7.169917 -48.230489   0.000201 -22.727786   0.000277   4.050585  -3.000726   1.231794  -9.190510  -2.208843 -11.063821  85.011844   0.001093  -0.001966 -61.080854  -4.171308  -0.686518  -2.210041  -0.000107  -0.000754 -39.336776   1.529049   5.611380  88.196670   0.001817   0.001748 -35.694803   1.972223  -2.116043   0.971490  -0.000006  -0.000161
 -2.378919   0.682116   4.722680 -13.856384 -14.387166  -0.579291  18.326299   1.763172  -1.749083   6.327439   0.570410   0.409934   6.592288   1.253032   1.318380   2.318706   1.827484   4.724041   3.436463  12.862564  49.368199  -0.000263  24.759540  -0.000097   4.281107   2.457968   0.108412   2.846176  -0.105888  -8.201905   5.508977  -7.131801 -48.172148   0.000190 -22.644410   0.000239   4.057358  -3.002118   1.259784  -8.985044  -2.051968 -11.160972  85.310532   0.001297  -0.002370 -61.672564  -4.197002  -0.478427  -2.005533   0.000154  -0.000640 -39.722580   1.386994   5.674297  87.996812   0.001558   0.001687 -36.020157   1.927504  -2.104295   0.954618  -0.000013  -0.000093
 -2.376928   0.678250   4.727534 -13.759978 -14.500076  -0.767276  18.180742   1.791627  -1.684681   6.318066   0.620588   0.430615   6.623464   1.262309   1.377847   2.274957   1.770484   4.803148   3.440134  12.906633  49.277647  -0.000075  24.662784  -0.000219   4.332093   2.557704   0.168240   2.829674  -0.036650  -8.177645   5.434694  -7.075721 -48.107300   0.000309 -22.442022   0.000373   4.081081  -3.037084   1.274836  -8.791715  -1.801780 -11.198710  85.705432   0.001866  -0.002785 -62.316180  -4.288161  -0.218481  -1.863095   0.000219  -0.000503 -40.105584   1.353529   5.730525  88.063231   0.001279   0.001241 -36.615885   1.969537  -2.013473   1.030304   0.000045  -0.000144
